<svg xmlns="http://www.w3.org/2000/svg" viewBox="0 0 440 210" width="440" height="210" role="img" aria-labelledby="t d">
<title id="t">Genuine Samsung M321R8GA0BB0-CQK module label and DRAM top marking</title><desc id="d">The approved winner. Laser-etched component marking, traceable serial C4F20A77, readable 2D DataMatrix, all date fields internally consistent.</desc>
<!-- LINEDOWN beat-5 marking fixture. Hand-authored schematic, NOT a photograph.
     viewBox is locked at 0 0 440 210 (~2.1:1). To swap in a real DIMM photograph, replace this
     file's contents keeping the SAME filename, or drop a same-stem .png beside it. The event log
     (data/mock-events.json e036/e037) references the .svg path and must not be edited. -->
<rect width="440" height="210" fill="#0d1f17"/>
<rect x="6" y="6" width="428" height="198" rx="4" fill="none" stroke="#17412e"/>
<rect x="16" y="14" width="236" height="130" rx="2" fill="#f6f5f1"/><text x="26" y="32" font-family="ui-monospace,'SF Mono',Menlo,Consolas,'Liberation Mono',monospace" font-size="12" font-weight="700" letter-spacing="0.8" fill="#15171a">SAMSUNG</text><text x="26" y="49" font-family="ui-monospace,'SF Mono',Menlo,Consolas,'Liberation Mono',monospace" font-size="10" font-weight="400" letter-spacing="0.8" fill="#15171a">M321R8GA0BB0-CQK</text><text x="26" y="66" font-family="ui-monospace,'SF Mono',Menlo,Consolas,'Liberation Mono',monospace" font-size="10" font-weight="400" letter-spacing="0.8" fill="#15171a">64GB 2Rx4 PC5-4800B</text><text x="26" y="83" font-family="ui-monospace,'SF Mono',Menlo,Consolas,'Liberation Mono',monospace" font-size="10" font-weight="400" letter-spacing="0.8" fill="#15171a">SN: C4F20A77</text><text x="26" y="100" font-family="ui-monospace,'SF Mono',Menlo,Consolas,'Liberation Mono',monospace" font-size="10" font-weight="400" letter-spacing="0.8" fill="#15171a">LOT: GTW2608B</text><text x="26" y="117" font-family="ui-monospace,'SF Mono',Menlo,Consolas,'Liberation Mono',monospace" font-size="10" font-weight="400" letter-spacing="0.8" fill="#15171a">DC: 2608</text><text x="26" y="134" font-family="ui-monospace,'SF Mono',Menlo,Consolas,'Liberation Mono',monospace" font-size="10" font-weight="400" letter-spacing="0.8" fill="#15171a">MADE IN KOREA</text><rect x="19.0" y="160" width="2.0" height="24" fill="#111"/><rect x="25.2" y="160" width="1.0" height="24" fill="#111"/><rect x="28.4" y="160" width="1.0" height="24" fill="#111"/><rect x="32.6" y="160" width="1.0" height="24" fill="#111"/><rect x="36.8" y="160" width="1.0" height="24" fill="#111"/><rect x="42.0" y="160" width="3.0" height="24" fill="#111"/><rect x="49.2" y="160" width="1.0" height="24" fill="#111"/><rect x="52.4" y="160" width="1.0" height="24" fill="#111"/><rect x="56.6" y="160" width="2.0" height="24" fill="#111"/><rect x="62.8" y="160" width="3.0" height="24" fill="#111"/><rect x="70.0" y="160" width="3.0" height="24" fill="#111"/><rect x="76.2" y="160" width="2.0" height="24" fill="#111"/><rect x="82.4" y="160" width="3.0" height="24" fill="#111"/><rect x="89.6" y="160" width="1.0" height="24" fill="#111"/><rect x="92.8" y="160" width="1.0" height="24" fill="#111"/><rect x="98.0" y="160" width="3.0" height="24" fill="#111"/><rect x="104.2" y="160" width="2.0" height="24" fill="#111"/><rect x="110.4" y="160" width="1.0" height="24" fill="#111"/><rect x="113.6" y="160" width="1.0" height="24" fill="#111"/><rect x="117.8" y="160" width="1.0" height="24" fill="#111"/><rect x="122.0" y="160" width="1.0" height="24" fill="#111"/><rect x="127.2" y="160" width="3.0" height="24" fill="#111"/><rect x="134.4" y="160" width="1.0" height="24" fill="#111"/><rect x="137.6" y="160" width="1.0" height="24" fill="#111"/><rect x="141.8" y="160" width="2.0" height="24" fill="#111"/><rect x="148.0" y="160" width="3.0" height="24" fill="#111"/><rect x="155.2" y="160" width="3.0" height="24" fill="#111"/><rect x="161.4" y="160" width="2.0" height="24" fill="#111"/><rect x="167.6" y="160" width="3.0" height="24" fill="#111"/><text x="16" y="194" font-family="ui-monospace,'SF Mono',Menlo,Consolas,'Liberation Mono',monospace" font-size="8" fill="#9fc7b1">CODE 128</text><rect x="186" y="160" width="24" height="24" fill="#fff"/><rect x="186.00" y="160.00" width="2.00" height="2.00" fill="#111"/><rect x="190.00" y="160.00" width="2.00" height="2.00" fill="#111"/><rect x="194.00" y="160.00" width="2.00" height="2.00" fill="#111"/><rect x="198.00" y="160.00" width="2.00" height="2.00" fill="#111"/><rect x="202.00" y="160.00" width="2.00" height="2.00" fill="#111"/><rect x="206.00" y="160.00" width="2.00" height="2.00" fill="#111"/><rect x="186.00" y="162.00" width="2.00" height="2.00" fill="#111"/><rect x="190.00" y="162.00" width="2.00" height="2.00" fill="#111"/><rect x="192.00" y="162.00" width="2.00" height="2.00" fill="#111"/><rect x="194.00" y="162.00" width="2.00" height="2.00" fill="#111"/><rect x="196.00" y="162.00" width="2.00" height="2.00" fill="#111"/><rect x="198.00" y="162.00" width="2.00" height="2.00" fill="#111"/><rect x="204.00" y="162.00" width="2.00" height="2.00" fill="#111"/><rect x="206.00" y="162.00" width="2.00" height="2.00" fill="#111"/><rect x="208.00" y="162.00" width="2.00" height="2.00" fill="#111"/><rect x="186.00" y="164.00" width="2.00" height="2.00" fill="#111"/><rect x="190.00" y="164.00" width="2.00" height="2.00" fill="#111"/><rect x="196.00" y="164.00" width="2.00" height="2.00" fill="#111"/><rect x="202.00" y="164.00" width="2.00" height="2.00" fill="#111"/><rect x="206.00" y="164.00" width="2.00" height="2.00" fill="#111"/><rect x="186.00" y="166.00" width="2.00" height="2.00" fill="#111"/><rect x="190.00" y="166.00" width="2.00" height="2.00" fill="#111"/><rect x="192.00" y="166.00" width="2.00" height="2.00" fill="#111"/><rect x="196.00" y="166.00" width="2.00" height="2.00" fill="#111"/><rect x="198.00" y="166.00" width="2.00" height="2.00" fill="#111"/><rect x="202.00" y="166.00" width="2.00" height="2.00" fill="#111"/><rect x="206.00" y="166.00" width="2.00" height="2.00" fill="#111"/><rect x="208.00" y="166.00" width="2.00" height="2.00" fill="#111"/><rect x="186.00" y="168.00" width="2.00" height="2.00" fill="#111"/><rect x="188.00" y="168.00" width="2.00" height="2.00" fill="#111"/><rect x="190.00" y="168.00" width="2.00" height="2.00" fill="#111"/><rect x="196.00" y="168.00" width="2.00" height="2.00" fill="#111"/><rect x="198.00" y="168.00" width="2.00" height="2.00" fill="#111"/><rect x="200.00" y="168.00" width="2.00" height="2.00" fill="#111"/><rect x="206.00" y="168.00" width="2.00" height="2.00" fill="#111"/><rect x="186.00" y="170.00" width="2.00" height="2.00" fill="#111"/><rect x="188.00" y="170.00" width="2.00" height="2.00" fill="#111"/><rect x="194.00" y="170.00" width="2.00" height="2.00" fill="#111"/><rect x="198.00" y="170.00" width="2.00" height="2.00" fill="#111"/><rect x="202.00" y="170.00" width="2.00" height="2.00" fill="#111"/><rect x="206.00" y="170.00" width="2.00" height="2.00" fill="#111"/><rect x="208.00" y="170.00" width="2.00" height="2.00" fill="#111"/><rect x="186.00" y="172.00" width="2.00" height="2.00" fill="#111"/><rect x="188.00" y="172.00" width="2.00" height="2.00" fill="#111"/><rect x="190.00" y="172.00" width="2.00" height="2.00" fill="#111"/><rect x="194.00" y="172.00" width="2.00" height="2.00" fill="#111"/><rect x="198.00" y="172.00" width="2.00" height="2.00" fill="#111"/><rect x="200.00" y="172.00" width="2.00" height="2.00" fill="#111"/><rect x="202.00" y="172.00" width="2.00" height="2.00" fill="#111"/><rect x="204.00" y="172.00" width="2.00" height="2.00" fill="#111"/><rect x="206.00" y="172.00" width="2.00" height="2.00" fill="#111"/><rect x="186.00" y="174.00" width="2.00" height="2.00" fill="#111"/><rect x="188.00" y="174.00" width="2.00" height="2.00" fill="#111"/><rect x="190.00" y="174.00" width="2.00" height="2.00" fill="#111"/><rect x="192.00" y="174.00" width="2.00" height="2.00" fill="#111"/><rect x="198.00" y="174.00" width="2.00" height="2.00" fill="#111"/><rect x="204.00" y="174.00" width="2.00" height="2.00" fill="#111"/><rect x="208.00" y="174.00" width="2.00" height="2.00" fill="#111"/><rect x="186.00" y="176.00" width="2.00" height="2.00" fill="#111"/><rect x="190.00" y="176.00" width="2.00" height="2.00" fill="#111"/><rect x="194.00" y="176.00" width="2.00" height="2.00" fill="#111"/><rect x="198.00" y="176.00" width="2.00" height="2.00" fill="#111"/><rect x="200.00" y="176.00" width="2.00" height="2.00" fill="#111"/><rect x="204.00" y="176.00" width="2.00" height="2.00" fill="#111"/><rect x="206.00" y="176.00" width="2.00" height="2.00" fill="#111"/><rect x="186.00" y="178.00" width="2.00" height="2.00" fill="#111"/><rect x="190.00" y="178.00" width="2.00" height="2.00" fill="#111"/><rect x="192.00" y="178.00" width="2.00" height="2.00" fill="#111"/><rect x="194.00" y="178.00" width="2.00" height="2.00" fill="#111"/><rect x="196.00" y="178.00" width="2.00" height="2.00" fill="#111"/><rect x="198.00" y="178.00" width="2.00" height="2.00" fill="#111"/><rect x="204.00" y="178.00" width="2.00" height="2.00" fill="#111"/><rect x="206.00" y="178.00" width="2.00" height="2.00" fill="#111"/><rect x="208.00" y="178.00" width="2.00" height="2.00" fill="#111"/><rect x="186.00" y="180.00" width="2.00" height="2.00" fill="#111"/><rect x="190.00" y="180.00" width="2.00" height="2.00" fill="#111"/><rect x="196.00" y="180.00" width="2.00" height="2.00" fill="#111"/><rect x="202.00" y="180.00" width="2.00" height="2.00" fill="#111"/><rect x="206.00" y="180.00" width="2.00" height="2.00" fill="#111"/><rect x="186.00" y="182.00" width="2.00" height="2.00" fill="#111"/><rect x="188.00" y="182.00" width="2.00" height="2.00" fill="#111"/><rect x="190.00" y="182.00" width="2.00" height="2.00" fill="#111"/><rect x="192.00" y="182.00" width="2.00" height="2.00" fill="#111"/><rect x="194.00" y="182.00" width="2.00" height="2.00" fill="#111"/><rect x="196.00" y="182.00" width="2.00" height="2.00" fill="#111"/><rect x="198.00" y="182.00" width="2.00" height="2.00" fill="#111"/><rect x="200.00" y="182.00" width="2.00" height="2.00" fill="#111"/><rect x="202.00" y="182.00" width="2.00" height="2.00" fill="#111"/><rect x="204.00" y="182.00" width="2.00" height="2.00" fill="#111"/><rect x="206.00" y="182.00" width="2.00" height="2.00" fill="#111"/><rect x="208.00" y="182.00" width="2.00" height="2.00" fill="#111"/><text x="186" y="194" font-family="ui-monospace,'SF Mono',Menlo,Consolas,'Liberation Mono',monospace" font-size="8" fill="#9fc7b1">2D OK</text><rect x="266" y="20" width="158" height="124" rx="5" fill="#14161a"/><rect x="266.5" y="20.5" width="157" height="123" rx="5" fill="none" stroke="#2c3038"/><text x="345" y="52" text-anchor="middle" font-family="ui-monospace,'SF Mono',Menlo,Consolas,'Liberation Mono',monospace" font-size="10" font-weight="400" letter-spacing="0.6" fill="#e9ebee">SAMSUNG 608</text><text x="345" y="72" text-anchor="middle" font-family="ui-monospace,'SF Mono',Menlo,Consolas,'Liberation Mono',monospace" font-size="12" font-weight="700" letter-spacing="0.6" fill="#e9ebee">K4RAH086VB-BCQK</text><text x="345" y="92" text-anchor="middle" font-family="ui-monospace,'SF Mono',Menlo,Consolas,'Liberation Mono',monospace" font-size="10" font-weight="400" letter-spacing="0.6" fill="#e9ebee">GTW2608B</text><text x="345" y="112" text-anchor="middle" font-family="ui-monospace,'SF Mono',Menlo,Consolas,'Liberation Mono',monospace" font-size="10" font-weight="400" letter-spacing="0.6" fill="#e9ebee">KOREA</text><rect x="266" y="160" width="158" height="24" rx="3" fill="#146c43"/><text x="345" y="176" text-anchor="middle" font-family="ui-monospace,'SF Mono',Menlo,Consolas,'Liberation Mono',monospace" font-size="10" font-weight="700" letter-spacing="1.1" fill="#fff">GENUINE · APPROVED</text><rect x="14" y="202" width="6" height="6" fill="#c9a227"/><rect x="23" y="202" width="6" height="6" fill="#c9a227"/><rect x="32" y="202" width="6" height="6" fill="#c9a227"/><rect x="41" y="202" width="6" height="6" fill="#c9a227"/><rect x="50" y="202" width="6" height="6" fill="#c9a227"/><rect x="59" y="202" width="6" height="6" fill="#c9a227"/><rect x="68" y="202" width="6" height="6" fill="#c9a227"/><rect x="77" y="202" width="6" height="6" fill="#c9a227"/><rect x="86" y="202" width="6" height="6" fill="#c9a227"/><rect x="95" y="202" width="6" height="6" fill="#c9a227"/><rect x="104" y="202" width="6" height="6" fill="#c9a227"/><rect x="113" y="202" width="6" height="6" fill="#c9a227"/><rect x="122" y="202" width="6" height="6" fill="#c9a227"/><rect x="131" y="202" width="6" height="6" fill="#c9a227"/><rect x="140" y="202" width="6" height="6" fill="#c9a227"/><rect x="149" y="202" width="6" height="6" fill="#c9a227"/><rect x="158" y="202" width="6" height="6" fill="#c9a227"/><rect x="167" y="202" width="6" height="6" fill="#c9a227"/><rect x="176" y="202" width="6" height="6" fill="#c9a227"/><rect x="185" y="202" width="6" height="6" fill="#c9a227"/><rect x="194" y="202" width="6" height="6" fill="#c9a227"/><rect x="203" y="202" width="6" height="6" fill="#c9a227"/><rect x="212" y="202" width="6" height="6" fill="#c9a227"/><rect x="221" y="202" width="6" height="6" fill="#c9a227"/><rect x="230" y="202" width="6" height="6" fill="#c9a227"/><rect x="239" y="202" width="6" height="6" fill="#c9a227"/><rect x="248" y="202" width="6" height="6" fill="#c9a227"/><rect x="257" y="202" width="6" height="6" fill="#c9a227"/><rect x="266" y="202" width="6" height="6" fill="#c9a227"/><rect x="275" y="202" width="6" height="6" fill="#c9a227"/><rect x="284" y="202" width="6" height="6" fill="#c9a227"/><rect x="293" y="202" width="6" height="6" fill="#c9a227"/><rect x="302" y="202" width="6" height="6" fill="#c9a227"/><rect x="311" y="202" width="6" height="6" fill="#c9a227"/><rect x="320" y="202" width="6" height="6" fill="#c9a227"/><rect x="329" y="202" width="6" height="6" fill="#c9a227"/><rect x="338" y="202" width="6" height="6" fill="#c9a227"/><rect x="347" y="202" width="6" height="6" fill="#c9a227"/><rect x="356" y="202" width="6" height="6" fill="#c9a227"/><rect x="365" y="202" width="6" height="6" fill="#c9a227"/><rect x="374" y="202" width="6" height="6" fill="#c9a227"/><rect x="383" y="202" width="6" height="6" fill="#c9a227"/><rect x="392" y="202" width="6" height="6" fill="#c9a227"/><rect x="401" y="202" width="6" height="6" fill="#c9a227"/><rect x="410" y="202" width="6" height="6" fill="#c9a227"/><rect x="419" y="202" width="6" height="6" fill="#c9a227"/>
</svg>
