<svg xmlns="http://www.w3.org/2000/svg" viewBox="0 0 220 74" width="220" height="74" role="img">
  <rect width="220" height="74" rx="3" fill="#3b2a1f"/>
  <rect x="18" y="16" width="30" height="24" rx="2" fill="#15181a" opacity="0.88"/>
      <rect x="22" y="22" width="22" height="2" fill="#5d666b"/>
      <rect x="22" y="27" width="11" height="2" fill="#5d666b"/><rect x="56" y="16" width="30" height="24" rx="2" fill="#15181a" opacity="0.88"/>
      <rect x="60" y="22" width="22" height="2" fill="#5d666b"/>
      <rect x="60" y="27" width="15" height="2" fill="#5d666b"/><rect x="94" y="16" width="30" height="24" rx="2" fill="#15181a" opacity="0.88"/>
      <rect x="98" y="22" width="22" height="2" fill="#5d666b"/>
      <rect x="98" y="27" width="8" height="2" fill="#5d666b"/><rect x="132" y="16" width="30" height="24" rx="2" fill="#15181a" opacity="0.88"/>
      <rect x="136" y="22" width="22" height="2" fill="#5d666b"/>
      <rect x="136" y="27" width="13" height="2" fill="#5d666b"/><rect x="170" y="16" width="30" height="24" rx="2" fill="#15181a" opacity="0.88"/>
      <rect x="174" y="22" width="22" height="2" fill="#5d666b"/>
      <rect x="174" y="27" width="17" height="2" fill="#5d666b"/>
  <rect x="150" y="46" width="56" height="18" rx="2" fill="#f2f1ec"/>
  <text x="153" y="58" font-family="IBM Plex Mono, monospace" font-size="7.5" fill="#15181a">KR4821-B07</text>
  <rect x="12" y="65" width="2.6" height="7" fill="#c9a23d"/><rect x="16.6" y="65" width="2.6" height="7" fill="#c9a23d"/><rect x="21.2" y="65" width="2.6" height="7" fill="#c9a23d"/><rect x="25.799999999999997" y="65" width="2.6" height="7" fill="#c9a23d"/><rect x="30.4" y="65" width="2.6" height="7" fill="#c9a23d"/><rect x="35" y="65" width="2.6" height="7" fill="#c9a23d"/><rect x="39.599999999999994" y="65" width="2.6" height="7" fill="#c9a23d"/><rect x="44.199999999999996" y="65" width="2.6" height="7" fill="#c9a23d"/><rect x="48.8" y="65" width="2.6" height="7" fill="#c9a23d"/><rect x="53.4" y="65" width="2.6" height="7" fill="#c9a23d"/><rect x="58" y="65" width="2.6" height="7" fill="#c9a23d"/><rect x="62.599999999999994" y="65" width="2.6" height="7" fill="#c9a23d"/><rect x="67.19999999999999" y="65" width="2.6" height="7" fill="#c9a23d"/><rect x="71.8" y="65" width="2.6" height="7" fill="#c9a23d"/><rect x="76.39999999999999" y="65" width="2.6" height="7" fill="#c9a23d"/><rect x="81" y="65" width="2.6" height="7" fill="#c9a23d"/><rect x="85.6" y="65" width="2.6" height="7" fill="#c9a23d"/><rect x="90.19999999999999" y="65" width="2.6" height="7" fill="#c9a23d"/><rect x="94.8" y="65" width="2.6" height="7" fill="#c9a23d"/><rect x="99.39999999999999" y="65" width="2.6" height="7" fill="#c9a23d"/><rect x="104" y="65" width="2.6" height="7" fill="#c9a23d"/><rect x="108.6" y="65" width="2.6" height="7" fill="#c9a23d"/><rect x="113.19999999999999" y="65" width="2.6" height="7" fill="#c9a23d"/><rect x="117.8" y="65" width="2.6" height="7" fill="#c9a23d"/><rect x="122.39999999999999" y="65" width="2.6" height="7" fill="#c9a23d"/><rect x="126.99999999999999" y="65" width="2.6" height="7" fill="#c9a23d"/><rect x="131.6" y="65" width="2.6" height="7" fill="#c9a23d"/><rect x="136.2" y="65" width="2.6" height="7" fill="#c9a23d"/><rect x="140.79999999999998" y="65" width="2.6" height="7" fill="#c9a23d"/><rect x="145.39999999999998" y="65" width="2.6" height="7" fill="#c9a23d"/><rect x="150" y="65" width="2.6" height="7" fill="#c9a23d"/><rect x="154.6" y="65" width="2.6" height="7" fill="#c9a23d"/><rect x="159.2" y="65" width="2.6" height="7" fill="#c9a23d"/><rect x="163.79999999999998" y="65" width="2.6" height="7" fill="#c9a23d"/><rect x="168.39999999999998" y="65" width="2.6" height="7" fill="#c9a23d"/><rect x="173" y="65" width="2.6" height="7" fill="#c9a23d"/><rect x="177.6" y="65" width="2.6" height="7" fill="#c9a23d"/><rect x="182.2" y="65" width="2.6" height="7" fill="#c9a23d"/><rect x="186.79999999999998" y="65" width="2.6" height="7" fill="#c9a23d"/><rect x="191.39999999999998" y="65" width="2.6" height="7" fill="#c9a23d"/><rect x="196" y="65" width="2.6" height="7" fill="#c9a23d"/><rect x="200.6" y="65" width="2.6" height="7" fill="#c9a23d"/><rect x="205.2" y="65" width="2.6" height="7" fill="#c9a23d"/><rect x="209.79999999999998" y="65" width="2.6" height="7" fill="#c9a23d"/>
</svg>